<?xml version="1.0" encoding="iso-8859-1"?>
<!-- Uploaded to: SVG Repo, www.svgrepo.com, Generator: SVG Repo Mixer Tools -->
<svg version="1.1" id="Layer_1" xmlns="http://www.w3.org/2000/svg" xmlns:xlink="http://www.w3.org/1999/xlink" 
	 viewBox="0 0 512 512" xml:space="preserve">
<path style="fill:#FFD652;" d="M508.646,214.577C488.846,92.893,383.28,0,256,0C114.615,0,0,114.615,0,256s114.615,256,256,256
	c10.654,0,21.152-0.662,31.465-1.927L508.646,214.577z"/>
<path style="fill:#FDBA4C;" d="M512,256c0-14.106-1.159-27.937-3.354-41.423L377.992,83.921L256,478.609l31.465,31.465
	C414.004,494.563,512,386.731,512,256z"/>
<path style="fill:#4F5AA8;" d="M256,33.391l-55.652,172.522L256,478.609l133.767-163.751
	c24.223-29.706,38.755-67.626,38.755-108.945C428.522,110.632,351.281,33.391,256,33.391z"/>
<g>
	<path style="fill:#4A75C3;" d="M83.478,205.913c0,41.318,14.532,79.239,38.755,108.945L256,478.609V33.391
		C160.719,33.391,83.478,110.632,83.478,205.913z"/>
	<path style="fill:#4A75C3;" d="M255.998,72.347l-75.493,133.565l75.493,133.565c73.766,0,133.565-59.799,133.565-133.565
		S329.764,72.347,255.998,72.347z"/>
</g>
<path style="fill:#6FAEE8;" d="M122.433,205.912c0,73.766,59.799,133.565,133.565,133.565V72.347
	C182.232,72.347,122.433,132.146,122.433,205.912z"/>
<path style="fill:#F7EDBC;" d="M255.998,94.608l-62.911,111.304l62.911,111.304c61.471,0,111.304-49.833,111.304-111.304
	S317.469,94.608,255.998,94.608z"/>
<path style="fill:#FFFFFF;" d="M144.693,205.912c0,61.471,49.833,111.304,111.304,111.304V94.608
	C194.525,94.608,144.693,144.441,144.693,205.912z"/>
<path style="fill:#999999;" d="M300.519,146.406v52.87h-22.261v-52.87c0-6.15,4.981-11.13,11.13-11.13
	C295.539,135.276,300.519,140.257,300.519,146.406z"/>
<path style="fill:#B2B2B2;" d="M233.737,146.406v52.87h-22.261v-52.87c0-6.15,4.981-11.13,11.13-11.13
	S233.737,140.257,233.737,146.406z"/>
<polygon style="fill:#FDBA4C;" points="227.431,194.068 255.998,266.417 310.793,266.417 322.78,205.2 "/>
<polygon style="fill:#FFD652;" points="256,194.068 255.998,266.417 201.202,266.417 189.215,205.2 "/>
<polygon style="fill:#4F5AA8;" points="337.25,182.939 337.25,205.2 255.998,205.198 247.987,194.069 255.998,182.938 "/>
<rect x="174.748" y="182.94" style="fill:#4A75C3;" width="81.252" height="22.261"/>
</svg>